<svg id="visual" viewBox="0 0 900 100" width="900" height="100" xmlns="http://www.w3.org/2000/svg" xmlns:xlink="http://www.w3.org/1999/xlink" version="1.1"><path d="M0 85L7.2 85.3C14.3 85.7 28.7 86.3 43 83.7C57.3 81 71.7 75 86 73.5C100.3 72 114.7 75 128.8 77.5C143 80 157 82 171.2 81C185.3 80 199.7 76 214 76.7C228.3 77.3 242.7 82.7 257 86C271.3 89.3 285.7 90.7 300 88.5C314.3 86.3 328.7 80.7 343 79.5C357.3 78.3 371.7 81.7 386 81.7C400.3 81.7 414.7 78.3 428.8 76.3C443 74.3 457 73.7 471.2 73C485.3 72.3 499.7 71.7 514 74C528.3 76.3 542.7 81.7 557 82.8C571.3 84 585.7 81 600 77.8C614.3 74.7 628.7 71.3 643 71.7C657.3 72 671.7 76 686 79C700.3 82 714.7 84 728.8 85.2C743 86.3 757 86.7 771.2 83.7C785.3 80.7 799.7 74.3 814 73.5C828.3 72.7 842.7 77.3 857 77.7C871.3 78 885.7 74 892.8 72L900 70L900 101L892.8 101C885.7 101 871.3 101 857 101C842.7 101 828.3 101 814 101C799.7 101 785.3 101 771.2 101C757 101 743 101 728.8 101C714.7 101 700.3 101 686 101C671.7 101 657.3 101 643 101C628.7 101 614.3 101 600 101C585.7 101 571.3 101 557 101C542.7 101 528.3 101 514 101C499.7 101 485.3 101 471.2 101C457 101 443 101 428.8 101C414.7 101 400.3 101 386 101C371.7 101 357.3 101 343 101C328.7 101 314.3 101 300 101C285.7 101 271.3 101 257 101C242.7 101 228.3 101 214 101C199.7 101 185.3 101 171.2 101C157 101 143 101 128.8 101C114.7 101 100.3 101 86 101C71.7 101 57.3 101 43 101C28.7 101 14.3 101 7.2 101L0 101Z" fill="#fff9f0" stroke-linecap="round" stroke-linejoin="miter"></path></svg>